<svg id="svg" version="1.1" width="1024" height="1024" xmlns="http://www.w3.org/2000/svg"><path d="M452.938 146.063 C 436.897 148.423,422.003 159.137,414.070 174.020 C 409.159 183.233,408.000 189.572,408.000 207.210 L 408.000 223.000 359.250 223.006 C 332.389 223.009,307.806 223.449,304.500 223.986 C 290.988 226.182,276.765 236.458,270.205 248.766 C 263.599 261.160,264.000 248.909,264.000 438.500 C 264.000 589.876,264.184 611.288,265.533 616.465 C 269.893 633.203,283.427 646.862,299.919 651.167 C 306.032 652.763,320.951 652.889,509.701 652.942 C 656.624 652.984,714.369 652.688,718.201 651.875 C 731.656 649.018,745.625 638.427,751.242 626.823 C 757.346 614.214,757.000 625.532,757.000 438.339 C 757.000 316.751,756.678 265.562,755.890 261.799 C 754.260 254.012,748.475 243.692,742.252 237.470 C 735.751 230.968,725.078 225.380,716.500 223.986 C 713.188 223.448,688.436 223.009,661.250 223.006 L 612.000 223.000 612.000 207.710 C 612.000 197.219,611.520 190.579,610.472 186.552 C 605.170 166.196,586.932 149.203,567.000 146.045 C 559.288 144.823,461.256 144.838,452.938 146.063 M564.685 182.064 C 568.687 183.576,572.949 187.844,575.104 192.500 C 576.613 195.760,576.960 198.999,576.978 210.000 L 577.000 223.500 510.500 223.236 L 444.000 222.972 444.000 209.302 C 444.000 192.767,445.461 188.566,452.840 183.887 L 457.392 181.000 509.631 181.000 C 544.109 181.000,562.827 181.362,564.685 182.064 M705.507 263.351 C 710.962 265.891,716.460 271.463,718.625 276.645 C 719.772 279.391,719.996 306.224,719.978 438.718 C 719.957 590.566,719.876 597.676,718.122 601.539 C 715.810 606.626,708.328 613.286,703.193 614.824 C 697.433 616.550,324.486 616.516,318.616 614.789 C 312.731 613.058,303.763 603.911,302.154 598.000 C 301.206 594.518,300.994 557.996,301.215 436.500 L 301.500 279.500 304.151 274.500 C 307.392 268.387,310.138 265.742,316.000 263.084 C 320.479 261.054,321.405 261.044,510.500 261.032 L 700.500 261.020 705.507 263.351 M338.450 291.400 C 334.455 293.149,330.335 298.134,329.044 302.781 C 327.725 307.530,327.642 568.750,328.957 574.423 C 330.098 579.340,332.736 582.927,337.105 585.500 C 340.464 587.479,342.298 587.500,510.573 587.500 L 680.646 587.500 684.667 584.839 C 690.824 580.764,692.000 577.279,692.000 563.099 L 692.000 551.000 697.000 551.000 C 700.667 551.000,702.533 550.467,704.000 549.000 C 705.881 547.119,706.000 545.667,706.000 524.611 C 706.000 504.056,705.843 502.028,704.088 499.861 C 702.533 497.940,701.229 497.500,697.088 497.500 L 692.000 497.500 692.000 437.750 L 692.000 378.000 696.854 378.000 C 700.620 378.000,702.301 377.451,704.354 375.548 L 707.000 373.095 707.000 352.564 L 707.000 332.032 704.156 328.849 C 701.732 326.135,700.627 325.667,696.656 325.667 L 692.000 325.667 692.000 314.293 C 692.000 300.996,690.448 296.685,684.281 292.851 L 680.500 290.500 511.000 290.283 C 371.510 290.104,340.960 290.302,338.450 291.400 M670.077 310.923 C 672.648 313.494,673.000 314.558,673.000 319.750 L 673.000 325.654 670.132 325.233 C 666.221 324.659,661.178 327.443,660.381 330.617 C 660.025 332.036,659.681 342.189,659.617 353.180 L 659.500 373.162 662.306 375.581 C 664.249 377.257,666.324 378.000,669.056 378.000 L 673.000 378.000 673.000 438.019 L 673.000 498.038 670.500 497.411 C 667.057 496.546,663.439 497.612,661.028 500.201 C 659.119 502.249,659.000 503.660,659.000 524.236 L 659.000 546.095 661.646 548.548 C 663.612 550.370,665.410 551.000,668.646 551.000 L 673.000 551.000 673.000 557.545 C 673.000 563.162,672.652 564.439,670.545 566.545 L 668.091 569.000 510.101 569.000 L 352.112 569.000 349.306 566.587 L 346.500 564.173 346.500 440.337 C 346.500 372.226,346.843 315.274,347.263 313.775 C 348.955 307.728,338.850 308.084,510.327 308.040 L 667.154 308.000 670.077 310.923 M378.378 333.398 C 374.120 335.305,371.996 338.671,372.022 343.473 C 372.097 356.924,391.885 357.737,393.678 344.363 C 394.173 340.675,393.867 339.832,390.867 336.610 C 386.981 332.437,382.880 331.382,378.378 333.398 M497.302 337.061 C 487.838 338.293,479.412 340.842,469.377 345.509 C 457.141 351.201,449.015 356.833,439.924 365.924 C 421.904 383.944,411.649 407.063,410.297 432.715 C 408.299 470.647,425.212 505.033,455.908 525.439 C 484.208 544.252,522.099 546.818,553.619 532.055 C 584.663 517.515,606.012 488.524,611.051 454.066 C 612.663 443.041,611.724 424.024,609.024 413.000 C 604.868 396.037,592.030 374.486,579.207 362.948 C 556.448 342.471,527.069 333.185,497.302 337.061 M501.000 379.264 L 501.000 397.528 495.105 400.133 L 489.210 402.738 476.472 389.972 L 463.734 377.205 468.117 374.009 C 474.725 369.189,483.427 365.062,491.373 362.979 C 495.293 361.951,499.063 361.085,499.750 361.055 C 500.706 361.013,501.000 365.290,501.000 379.264 M533.500 363.695 C 539.333 365.507,552.417 372.152,555.935 375.088 L 558.370 377.120 545.370 390.120 L 532.371 403.120 529.435 401.540 C 527.821 400.671,525.375 399.574,524.000 399.101 L 521.500 398.242 521.793 379.551 L 522.086 360.860 525.293 361.500 C 527.057 361.853,530.750 362.840,533.500 363.695 M472.915 421.379 C 471.886 423.646,471.034 426.288,471.022 427.250 C 471.002 428.851,469.468 429.000,453.000 429.000 C 432.341 429.000,433.692 429.837,436.548 418.814 C 438.460 411.436,442.123 403.041,446.210 396.673 L 449.311 391.840 462.049 404.549 L 474.787 417.258 472.915 421.379 M577.898 399.750 C 581.941 406.595,586.309 418.417,587.320 425.250 L 587.874 429.000 569.687 428.983 L 551.500 428.966 549.248 423.233 L 546.997 417.500 559.396 405.250 C 566.215 398.512,572.271 393.000,572.853 393.000 C 573.435 393.000,575.705 396.038,577.898 399.750 M376.763 407.565 C 373.634 409.263,371.000 413.746,371.000 417.374 C 371.000 418.734,372.125 421.184,373.500 422.818 C 375.919 425.693,376.000 426.265,376.000 440.530 C 376.000 454.969,375.949 455.318,373.500 457.588 C 369.604 461.198,369.989 467.189,374.400 471.600 C 377.337 474.537,378.464 475.000,382.677 475.000 C 388.186 475.000,391.288 473.278,393.506 468.989 C 395.657 464.829,395.354 461.574,392.500 458.182 C 390.081 455.308,390.000 454.733,390.000 440.500 C 390.000 426.267,390.081 425.692,392.500 422.818 C 400.088 413.799,387.593 401.689,376.763 407.565 M520.102 420.588 C 521.532 421.308,524.072 423.457,525.746 425.363 C 539.622 441.167,523.141 465.054,503.529 457.564 C 489.943 452.376,486.802 433.959,497.751 423.681 C 503.302 418.470,513.179 417.103,520.102 420.588 M472.955 455.606 L 475.279 461.211 462.589 473.856 L 449.899 486.500 447.836 484.000 C 443.352 478.565,437.398 464.615,435.139 454.250 L 434.213 450.000 452.422 450.000 L 470.632 450.000 472.955 455.606 M588.000 450.840 C 588.000 452.971,583.967 466.989,582.134 471.227 C 581.010 473.827,578.457 478.508,576.461 481.629 L 572.831 487.303 559.468 473.968 C 546.283 460.810,546.124 460.598,547.545 458.066 C 548.338 456.655,549.428 454.262,549.968 452.750 L 550.950 450.000 569.475 450.000 C 579.664 450.000,588.000 450.378,588.000 450.840 M498.250 478.995 L 501.000 479.950 501.000 498.450 L 501.000 516.950 497.750 516.356 C 487.594 514.500,467.724 505.599,465.423 501.876 C 465.039 501.255,470.258 495.258,477.494 488.006 C 490.076 475.396,490.275 475.249,492.870 476.636 C 494.317 477.408,496.738 478.470,498.250 478.995 M558.000 501.619 C 558.000 501.699,555.101 503.654,551.557 505.963 C 544.696 510.433,534.843 514.259,526.250 515.791 L 521.000 516.727 521.011 498.113 L 521.022 479.500 526.261 477.422 L 531.500 475.343 544.750 488.408 C 552.038 495.593,558.000 501.538,558.000 501.619 M377.314 526.950 C 373.361 529.360,372.000 531.815,372.000 536.534 C 372.000 541.903,377.271 547.000,382.823 547.000 C 394.382 547.000,398.073 530.853,387.522 526.445 C 382.951 524.535,381.127 524.625,377.314 526.950 M344.000 782.000 L 344.000 851.000 356.000 851.000 L 368.000 851.000 368.000 844.797 L 368.000 838.594 371.750 842.230 C 386.957 856.972,415.212 855.834,430.865 839.849 C 445.839 824.557,449.127 795.806,438.388 774.076 C 433.715 764.620,427.028 757.856,418.241 753.693 C 411.851 750.666,410.901 750.502,400.000 750.542 C 389.816 750.579,387.865 750.878,382.946 753.150 C 379.892 754.562,375.729 757.177,373.696 758.962 L 370.000 762.207 370.000 737.604 L 370.000 713.000 357.000 713.000 L 344.000 713.000 344.000 782.000 M774.000 782.029 L 774.000 851.058 787.250 850.779 L 800.500 850.500 800.541 781.750 L 800.582 713.000 787.291 713.000 L 774.000 713.000 774.000 782.029 M189.810 764.750 L 189.500 813.500 187.000 818.500 C 182.401 827.697,171.595 830.593,161.200 825.412 C 158.344 823.989,155.179 821.772,154.166 820.484 L 152.325 818.144 143.413 826.174 C 138.511 830.590,134.312 834.384,134.082 834.603 C 133.414 835.242,142.114 842.853,146.580 845.538 C 155.048 850.628,161.670 852.280,173.500 852.254 C 182.081 852.234,185.782 851.770,190.330 850.141 C 201.938 845.983,210.793 836.843,215.327 824.339 C 217.362 818.728,217.457 816.501,217.773 767.250 L 218.101 716.000 204.111 716.000 L 190.121 716.000 189.810 764.750 M436.000 717.214 C 436.000 718.142,479.207 840.747,482.539 849.273 C 483.171 850.890,484.760 851.021,500.740 850.773 L 518.248 850.500 525.996 828.500 C 530.257 816.400,540.777 786.618,549.372 762.317 C 557.967 738.017,565.000 717.642,565.000 717.040 C 565.000 716.285,560.612 716.031,550.882 716.223 L 536.765 716.500 518.887 769.412 C 509.055 798.513,500.883 822.450,500.729 822.605 C 500.574 822.759,492.436 798.836,482.644 769.443 L 464.840 716.000 450.420 716.000 C 439.778 716.000,436.000 716.318,436.000 717.214 M840.000 727.042 C 833.675 728.037,828.388 728.884,828.250 728.925 C 828.112 728.966,828.000 734.175,828.000 740.500 L 828.000 752.000 820.500 752.000 L 813.000 752.000 813.000 763.000 L 813.000 774.000 820.500 774.000 L 828.000 774.000 828.000 800.318 C 828.000 829.719,828.619 833.723,834.319 841.195 C 839.437 847.906,847.045 851.291,858.208 851.824 C 863.364 852.071,869.598 851.737,872.669 851.050 L 878.066 849.842 877.783 839.361 L 877.500 828.880 868.276 828.690 C 853.952 828.395,854.569 829.697,854.201 798.974 L 853.902 774.000 865.951 774.000 L 878.000 774.000 878.000 763.000 L 878.000 752.000 866.000 752.000 L 854.000 752.000 854.000 738.500 C 854.000 728.305,853.694 725.028,852.750 725.116 C 852.063 725.180,846.325 726.047,840.000 727.042 M266.348 751.420 C 247.892 755.897,234.454 769.800,230.511 788.500 C 224.114 818.835,240.524 845.515,269.208 851.415 C 278.464 853.318,281.210 853.339,291.084 851.577 C 310.194 848.168,324.656 834.937,329.469 816.458 C 331.259 809.587,331.472 795.367,329.898 787.799 C 326.294 770.464,312.347 756.190,294.458 751.531 C 287.493 749.717,273.595 749.662,266.348 751.420 M590.459 751.395 C 579.147 754.143,569.167 761.293,563.952 770.385 C 562.339 773.198,561.015 776.004,561.009 776.620 C 561.004 777.236,565.671 778.978,571.380 780.492 L 581.760 783.243 586.630 778.221 C 593.759 770.870,603.724 768.876,612.784 772.988 C 617.814 775.271,620.943 780.908,620.978 787.750 L 621.000 792.000 611.250 792.020 C 585.264 792.073,567.281 798.667,560.773 810.530 C 557.090 817.244,556.916 827.136,560.353 834.500 C 566.201 847.032,582.418 854.587,598.061 852.068 C 605.959 850.796,615.447 846.277,620.250 841.501 L 624.000 837.772 624.000 844.386 L 624.000 851.000 636.000 851.000 L 648.000 851.000 647.983 817.750 C 647.963 780.204,647.207 773.775,641.894 765.990 C 637.685 759.822,630.112 754.424,622.271 752.002 C 614.752 749.680,598.774 749.375,590.459 751.395 M664.208 789.250 C 664.551 824.977,664.656 826.728,666.791 832.079 C 671.358 843.530,679.843 849.860,693.621 852.095 C 706.683 854.214,719.957 850.296,728.750 841.726 L 733.000 837.584 733.000 844.292 L 733.000 851.000 745.000 851.000 L 757.000 851.000 757.000 801.500 L 757.000 752.000 743.750 752.000 L 730.500 752.000 730.500 782.750 C 730.500 799.662,730.156 814.729,729.736 816.232 C 727.480 824.292,718.294 829.506,707.554 828.823 C 700.590 828.379,697.378 826.725,693.562 821.617 C 691.590 818.978,691.487 817.393,691.212 785.428 L 690.923 752.000 677.387 752.000 L 663.850 752.000 664.208 789.250 M291.650 774.288 C 306.410 782.067,309.584 810.163,297.196 823.376 C 288.039 833.144,269.046 831.889,261.513 821.019 C 257.416 815.107,256.092 810.331,256.044 801.288 C 255.974 788.238,260.834 778.712,270.000 773.933 C 275.697 770.963,285.651 771.126,291.650 774.288 M404.824 774.920 C 413.170 779.201,417.200 786.879,417.800 799.646 C 418.711 819.043,410.063 830.033,393.934 829.978 C 383.148 829.941,376.425 825.542,371.809 815.500 C 368.530 808.368,368.539 794.706,371.827 787.393 C 374.758 780.875,380.500 775.267,386.107 773.448 C 391.532 771.688,399.787 772.337,404.824 774.920 M621.451 813.353 C 619.262 826.503,606.758 835.866,594.466 833.560 C 582.941 831.397,581.681 817.394,592.500 811.707 C 595.664 810.044,599.007 809.486,608.500 809.036 C 615.100 808.724,620.869 808.634,621.321 808.837 C 621.772 809.039,621.830 811.072,621.451 813.353 " stroke="none" fill="#7400f0" fill-rule="evenodd"/></svg>