<svg id="svg" version="1.1" width="1024" height="1024" xmlns="http://www.w3.org/2000/svg"><path d="M492.616 176.250 C 488.838 179.656,470.151 202.765,466.209 208.906 C 460.841 217.269,458.731 224.213,458.222 235.195 C 457.497 250.816,461.211 259.814,476.445 279.338 C 481.492 285.807,482.228 289.699,479.350 294.713 C 475.547 301.339,481.115 310.000,489.177 310.000 C 497.260 310.000,502.272 301.450,502.218 287.753 C 502.186 279.640,499.270 273.025,490.043 260.130 C 479.485 245.375,477.596 236.108,482.966 225.410 C 484.598 222.159,490.516 213.662,496.117 206.526 C 511.031 187.527,511.677 186.144,508.506 180.011 C 505.288 173.790,497.413 171.925,492.616 176.250 M558.130 176.250 C 553.699 179.399,534.695 203.012,529.498 211.828 C 521.593 225.234,519.941 240.899,525.012 254.348 C 527.007 259.638,529.535 263.749,541.315 280.850 C 545.226 286.529,545.866 290.271,543.468 293.441 C 540.309 297.617,542.170 305.488,546.990 308.335 C 554.325 312.668,561.490 308.822,564.412 298.983 C 568.056 286.715,565.673 276.197,556.448 263.831 C 547.978 252.478,544.490 244.762,544.551 237.515 C 544.622 229.026,547.032 224.436,559.563 208.922 C 574.003 191.045,575.000 189.485,575.000 184.760 C 575.000 181.590,574.322 180.122,571.600 177.400 C 567.462 173.262,562.884 172.871,558.130 176.250 M378.071 328.745 C 376.185 329.710,373.710 331.770,372.571 333.323 C 370.518 336.122,370.498 336.907,370.234 425.599 C 369.938 525.219,369.743 521.909,376.714 535.387 C 382.126 545.851,393.281 556.628,404.130 561.874 C 420.718 569.894,415.373 569.500,507.500 569.500 C 599.224 569.500,593.978 569.874,609.864 562.195 C 620.238 557.179,633.357 544.386,637.827 534.927 C 641.592 526.959,643.815 518.764,644.657 509.750 L 645.287 503.000 659.196 503.000 C 668.334 503.000,675.574 502.448,680.303 501.390 C 699.089 497.188,714.023 483.527,718.462 466.485 C 719.685 461.791,720.000 454.276,720.000 429.839 C 720.000 411.260,719.563 397.002,718.895 393.799 C 715.614 378.064,704.772 365.010,689.864 358.841 C 685.169 356.899,682.073 356.552,665.045 356.061 L 645.590 355.500 645.715 348.853 C 645.887 339.661,644.446 334.824,640.349 330.854 L 636.889 327.500 509.195 327.245 C 389.129 327.006,381.295 327.096,378.071 328.745 M624.000 428.451 C 624.000 482.435,623.647 509.600,622.898 513.201 C 619.984 527.217,610.291 539.132,597.352 544.603 L 590.500 547.500 510.500 547.815 C 451.329 548.048,429.068 547.820,425.000 546.940 C 411.078 543.926,401.319 536.470,395.266 524.224 L 391.500 516.605 391.228 432.803 L 390.956 349.000 507.478 349.000 L 624.000 349.000 624.000 428.451 M679.966 378.583 C 683.932 379.760,686.644 381.514,690.565 385.435 C 698.564 393.434,699.000 395.683,699.000 429.000 C 699.000 462.260,698.555 464.576,690.635 472.495 C 683.061 480.069,678.244 481.489,660.091 481.495 L 645.681 481.500 645.818 429.500 C 645.893 400.900,645.964 377.387,645.977 377.250 C 645.990 377.113,652.443 377.000,660.318 377.000 C 670.467 377.000,676.189 377.461,679.966 378.583 M363.500 592.412 C 348.244 595.394,335.988 601.982,326.170 612.478 C 308.301 631.579,305.164 660.605,318.481 683.620 C 323.249 691.859,334.648 702.130,344.155 706.753 C 354.943 711.998,361.126 713.372,374.000 713.384 C 386.527 713.395,394.197 711.608,405.601 706.020 C 426.764 695.651,439.000 675.676,439.000 651.500 C 439.000 623.389,421.797 600.474,395.465 593.509 C 387.021 591.275,371.958 590.758,363.500 592.412 M383.500 604.353 C 397.053 610.677,403.958 626.405,405.956 655.500 C 408.170 687.736,398.471 703.965,377.679 702.814 C 373.362 702.575,368.905 701.645,366.500 700.481 C 357.660 696.203,349.521 684.090,345.348 669.000 C 343.948 663.936,343.556 658.854,343.573 646.000 C 343.592 631.495,343.865 628.735,345.834 623.171 C 349.625 612.463,354.865 605.972,362.030 603.113 C 366.870 601.181,378.092 601.829,383.500 604.353 M677.788 625.194 C 673.654 626.293,666.220 632.352,664.065 636.379 C 661.803 640.605,661.000 639.457,661.000 632.000 L 661.000 625.000 657.484 625.000 C 655.550 625.000,649.137 626.321,643.234 627.937 C 637.330 629.552,630.587 631.369,628.250 631.975 C 625.010 632.815,624.000 633.559,624.000 635.104 C 624.000 638.375,625.902 640.999,628.285 641.015 C 634.480 641.058,635.000 643.443,635.000 671.799 C 635.000 695.507,634.898 696.860,632.927 699.365 C 631.788 700.814,629.853 702.000,628.627 702.000 C 625.829 702.000,624.000 703.779,624.000 706.500 C 624.000 710.775,625.262 711.000,649.221 711.000 L 672.043 711.000 673.124 708.626 C 674.767 705.020,672.817 702.111,668.834 702.224 C 666.560 702.288,665.009 701.549,663.333 699.601 C 661.044 696.940,661.000 696.477,661.000 675.260 C 661.000 655.622,661.185 653.248,663.015 649.470 C 665.101 645.160,668.828 642.613,671.531 643.650 C 672.386 643.978,673.967 645.976,675.046 648.090 C 677.357 652.620,679.561 654.000,684.484 654.000 C 689.572 654.000,693.159 651.841,695.761 647.212 C 700.261 639.204,697.825 629.188,690.576 625.895 C 686.090 623.858,683.372 623.709,677.788 625.194 M570.746 626.030 C 551.583 630.833,539.000 648.699,539.000 671.105 C 539.000 688.753,547.529 703.232,561.762 709.748 C 573.467 715.107,585.627 715.064,597.514 709.622 C 607.634 704.989,618.215 692.403,616.509 687.027 C 615.551 684.011,613.325 684.544,608.257 689.005 C 598.590 697.514,583.695 698.319,574.601 690.823 C 570.265 687.248,565.193 677.012,564.796 671.034 L 564.500 666.569 568.500 665.819 C 570.700 665.406,581.802 665.102,593.171 665.142 C 604.540 665.183,614.384 664.881,615.046 664.472 C 615.872 663.961,616.099 661.627,615.769 657.020 C 614.875 644.519,607.736 633.464,597.241 628.330 C 592.701 626.108,590.063 625.552,583.081 625.344 C 578.361 625.204,572.811 625.512,570.746 626.030 M447.200 628.200 C 445.276 630.124,445.807 632.827,448.447 634.558 C 449.794 635.440,452.235 638.262,453.873 640.831 C 456.437 644.850,479.018 695.360,483.808 707.790 L 485.461 712.081 491.922 711.790 L 498.383 711.500 506.760 693.500 C 526.321 651.472,531.543 641.572,536.410 637.288 C 540.904 633.332,541.618 631.773,540.393 628.582 C 539.879 627.241,537.598 627.000,525.428 627.000 C 512.274 627.000,510.984 627.162,510.039 628.928 C 508.656 631.511,509.439 633.162,513.016 635.203 C 516.483 637.183,516.802 639.785,514.504 647.360 C 512.576 653.714,501.046 680.854,499.999 681.501 C 499.553 681.776,498.503 680.089,497.666 677.751 C 496.828 675.413,493.612 666.575,490.518 658.111 C 484.037 640.379,483.796 637.250,488.738 635.075 C 492.175 633.562,493.449 631.333,492.416 628.641 C 491.859 627.189,489.281 627.000,470.093 627.000 C 454.554 627.000,448.060 627.340,447.200 628.200 M588.006 637.852 C 590.892 640.738,594.617 650.949,593.678 653.397 C 593.196 654.653,580.386 655.982,568.639 655.995 L 563.777 656.000 564.467 652.325 C 565.658 645.978,568.086 641.132,571.638 638.013 C 574.484 635.514,575.931 635.000,580.112 635.000 C 584.323 635.000,585.624 635.470,588.006 637.852 M514.909 728.896 C 500.484 733.512,492.968 742.964,489.619 760.701 C 487.980 769.379,486.599 771.000,480.844 771.000 C 476.508 771.000,474.890 772.973,475.709 777.261 C 476.195 779.799,476.590 780.000,481.094 780.000 C 489.138 780.000,489.143 780.019,488.796 812.291 C 488.523 837.696,488.355 839.954,486.595 841.897 C 485.528 843.075,483.465 844.000,481.904 844.000 C 478.879 844.000,478.090 844.776,477.433 848.396 C 476.635 852.798,478.195 853.053,504.124 852.768 L 528.500 852.500 528.810 848.750 C 529.020 846.219,528.695 844.952,527.810 844.852 C 527.090 844.771,525.825 844.612,525.000 844.500 C 524.175 844.388,522.467 844.229,521.205 844.148 C 519.942 844.067,517.805 842.895,516.455 841.545 L 514.000 839.091 514.000 809.579 L 514.000 780.068 524.750 779.784 L 535.500 779.500 535.500 774.500 L 535.500 769.500 524.750 769.216 L 514.000 768.932 514.000 757.531 C 514.000 742.420,515.300 739.049,521.141 739.015 C 523.322 739.003,524.078 739.741,525.475 743.250 C 527.704 748.847,529.562 750.785,533.827 751.963 C 536.635 752.738,538.222 752.553,541.606 751.056 C 551.702 746.590,551.553 732.636,541.364 728.379 C 536.611 726.393,521.831 726.682,514.909 728.896 M576.836 728.919 C 561.785 733.733,553.153 744.777,551.098 761.853 C 550.283 768.618,548.592 770.987,544.559 771.014 C 539.241 771.049,537.880 772.089,538.197 775.880 C 538.492 779.408,538.615 779.508,543.000 779.797 C 545.717 779.976,547.995 780.745,548.750 781.738 C 549.680 782.962,550.000 790.461,550.000 811.056 C 550.000 837.539,549.911 838.844,547.927 841.365 C 546.788 842.814,544.853 844.000,543.627 844.000 C 540.804 844.000,539.000 845.784,539.000 848.578 C 539.000 852.825,540.461 853.050,566.124 852.768 L 590.500 852.500 590.810 848.750 C 590.981 846.688,590.756 844.965,590.310 844.923 C 582.563 844.187,580.179 843.561,578.250 841.756 C 576.014 839.664,576.000 839.466,576.000 809.826 C 576.000 786.689,576.280 779.976,577.250 779.894 C 577.938 779.835,582.775 779.723,588.000 779.644 L 597.500 779.500 597.500 774.500 L 597.500 769.500 586.750 769.216 L 576.000 768.932 576.004 757.216 C 576.007 747.301,576.312 745.001,577.989 742.250 C 579.522 739.735,580.656 739.000,582.998 739.000 C 585.688 739.000,586.284 739.585,588.350 744.250 C 590.968 750.163,594.189 752.448,599.686 752.292 C 606.181 752.108,611.200 746.435,611.200 739.278 C 611.200 734.978,608.514 731.090,603.929 728.752 C 599.217 726.349,584.589 726.439,576.836 728.919 M316.128 733.012 C 284.716 737.415,264.427 757.856,259.952 789.608 C 258.870 797.289,258.921 799.590,260.329 806.500 C 262.691 818.092,267.876 827.896,275.866 835.875 C 283.778 843.776,290.920 848.149,302.739 852.329 C 311.051 855.268,312.269 855.426,326.500 855.418 C 340.218 855.410,342.184 855.176,349.500 852.673 C 360.593 848.878,364.283 846.897,365.677 843.988 C 367.618 839.937,370.328 824.444,369.602 821.549 C 369.009 819.188,368.515 818.919,365.274 819.192 C 361.997 819.468,361.272 820.091,358.310 825.170 C 354.562 831.598,348.925 836.827,342.136 840.170 C 338.463 841.979,335.838 842.450,329.500 842.434 C 322.576 842.417,320.612 841.986,314.893 839.225 C 299.286 831.689,292.057 816.579,292.017 791.410 C 291.982 769.052,298.841 753.936,312.277 746.757 C 318.349 743.512,332.402 743.585,339.216 746.897 C 348.624 751.468,356.607 760.914,358.452 769.656 C 359.224 773.318,362.326 774.587,366.563 772.976 C 369.055 772.028,369.221 771.621,368.702 767.724 C 368.392 765.401,367.594 757.990,366.928 751.255 C 366.263 744.521,365.219 738.599,364.609 738.096 C 362.805 736.608,341.227 732.983,331.500 732.535 C 326.550 732.306,319.632 732.521,316.128 733.012 M634.917 767.007 C 610.918 769.990,593.739 796.467,599.105 822.201 C 601.797 835.112,610.994 847.339,621.749 852.306 C 625.838 854.194,628.242 854.500,639.000 854.500 C 650.515 854.500,651.958 854.286,657.309 851.778 C 664.545 848.388,673.469 839.504,675.097 834.070 C 677.306 826.699,673.762 824.596,668.510 830.161 C 662.408 836.626,650.018 839.319,640.861 836.170 C 636.373 834.626,630.649 829.193,627.962 823.926 C 625.189 818.489,623.660 810.114,625.121 808.355 C 626.010 807.283,631.334 807.000,650.603 807.000 L 674.962 807.000 675.594 804.482 C 676.679 800.158,674.986 791.292,671.894 785.105 C 667.171 775.651,658.116 768.723,648.842 767.464 C 646.454 767.139,643.600 766.748,642.500 766.593 C 641.400 766.439,637.987 766.625,634.917 767.007 M413.348 768.420 C 400.914 771.436,390.342 779.071,385.298 788.679 C 380.967 796.930,379.655 803.611,380.225 814.516 C 380.810 825.699,384.291 834.190,391.411 841.801 C 400.626 851.653,411.553 855.441,428.968 854.820 C 439.879 854.431,441.102 854.173,448.305 850.753 C 466.236 842.237,475.175 825.026,472.173 804.797 C 469.508 786.847,457.365 772.933,440.540 768.552 C 433.513 766.722,420.606 766.659,413.348 768.420 M713.000 768.819 C 694.647 774.902,684.000 790.789,684.000 812.092 C 684.000 830.933,692.038 844.906,706.880 851.865 C 711.973 854.253,713.624 854.500,724.500 854.500 C 735.831 854.500,736.863 854.328,743.003 851.418 C 750.551 847.841,758.509 840.365,761.168 834.352 C 764.710 826.346,760.462 824.476,753.439 830.950 C 745.341 838.414,731.816 840.012,722.577 834.598 C 715.450 830.422,709.413 818.940,710.167 811.000 L 710.500 807.500 735.500 807.000 L 760.500 806.500 760.450 799.000 C 760.366 786.210,754.194 776.227,742.717 770.311 C 735.772 766.732,721.465 766.014,713.000 768.819 M647.184 778.665 C 650.247 781.436,652.874 787.240,653.145 791.838 C 653.279 794.097,653.188 796.134,652.944 796.365 C 652.700 796.596,646.200 796.945,638.500 797.142 L 624.500 797.500 624.757 794.000 C 625.167 788.427,629.973 780.002,634.000 777.799 C 638.172 775.515,644.134 775.907,647.184 778.665 M730.389 777.389 C 734.423 779.074,738.012 785.782,738.303 792.176 L 738.500 796.500 724.500 797.034 C 716.800 797.328,710.152 797.296,709.728 796.962 C 708.274 795.820,712.854 783.511,715.725 780.845 C 721.223 775.739,724.558 774.953,730.389 777.389 M432.102 779.289 C 439.504 784.274,443.112 796.551,443.335 817.507 C 443.465 829.743,443.313 830.839,440.781 836.015 C 437.159 843.419,433.544 845.455,424.632 845.111 C 420.569 844.954,414.783 838.779,412.203 831.846 C 406.358 816.134,407.188 790.314,413.791 782.469 C 418.792 776.527,426.113 775.255,432.102 779.289 " stroke="none" fill="#F8F1D9" fill-rule="evenodd"/></svg>