<svg id="svg" version="1.1" width="1024" height="1024" xmlns="http://www.w3.org/2000/svg"><path d="M0.000 512.000 L 0.000 1024.000 512.000 1024.000 L 1024.000 1024.000 1024.000 512.000 L 1024.000 0.000 512.000 0.000 L 0.000 0.000 0.000 512.000 M497.991 91.290 C 502.669 93.657,501.746 95.834,494.831 98.745 C 455.001 115.510,418.800 141.010,389.416 173.000 C 340.635 226.107,313.295 284.411,303.369 356.500 C 300.897 374.456,300.881 419.884,303.341 438.381 C 311.902 502.761,334.108 556.057,373.593 606.990 C 384.813 621.464,413.104 650.497,427.403 662.211 C 472.139 698.864,531.605 723.995,593.000 732.197 C 608.070 734.210,652.628 733.900,668.500 731.672 C 715.461 725.079,759.457 710.128,793.385 689.233 C 820.246 672.690,840.217 656.913,862.583 634.567 C 885.649 611.522,896.896 597.155,910.390 573.500 C 916.963 561.978,919.260 559.534,922.093 561.050 C 924.488 562.331,924.608 567.977,922.533 581.757 C 910.809 659.605,872.105 736.204,814.198 796.160 C 764.628 847.483,706.610 883.818,638.893 905.945 C 598.639 919.100,563.875 924.414,518.000 924.425 C 487.400 924.433,472.239 923.156,446.000 918.364 C 327.410 896.703,223.276 824.552,160.940 720.854 C 130.476 670.176,112.329 617.927,103.338 555.000 C 100.707 536.583,100.705 472.563,103.336 452.500 C 108.567 412.604,116.036 381.494,128.171 349.065 C 153.127 282.368,198.496 219.737,254.920 174.088 C 306.168 132.627,383.133 98.613,441.760 91.517 C 456.311 89.756,494.653 89.601,497.991 91.290 M816.850 126.319 C 817.452 127.045,820.156 133.458,822.858 140.569 C 825.560 147.681,828.339 154.726,829.034 156.224 C 830.363 159.089,830.704 159.247,848.259 165.086 C 859.370 168.782,864.000 171.271,864.000 173.548 C 864.000 175.434,855.539 179.395,841.894 183.899 C 836.611 185.642,831.562 187.616,830.675 188.285 C 829.788 188.953,826.367 196.666,823.071 205.424 C 819.776 214.183,816.467 221.962,815.718 222.711 C 812.442 225.986,811.198 223.737,800.556 195.296 C 797.541 187.239,799.365 188.453,779.500 181.282 C 759.022 173.889,759.661 171.823,785.000 163.507 C 791.325 161.431,797.005 159.335,797.622 158.850 C 798.239 158.365,799.756 155.163,800.993 151.734 C 805.247 139.942,810.255 127.498,811.249 126.250 C 812.550 124.616,815.467 124.653,816.850 126.319 M650.980 230.505 C 653.495 237.652,655.888 244.035,656.298 244.690 C 656.708 245.344,662.096 247.518,668.272 249.520 C 689.293 256.336,689.136 258.298,667.000 265.476 C 662.325 266.992,657.683 269.010,656.683 269.961 C 655.684 270.911,652.734 277.045,650.128 283.591 C 647.331 290.617,644.773 295.613,643.885 295.784 C 642.803 295.992,641.020 292.619,637.545 283.787 C 634.885 277.029,632.048 270.732,631.239 269.794 C 630.431 268.855,626.109 266.873,621.635 265.389 C 608.513 261.037,605.000 259.299,605.000 257.159 C 605.000 254.905,610.267 252.477,622.872 248.919 C 628.371 247.367,631.696 245.860,632.559 244.528 C 633.283 243.413,635.681 237.204,637.890 230.731 C 642.571 217.012,642.683 216.792,644.797 217.199 C 645.872 217.406,647.928 221.832,650.980 230.505 M870.786 331.750 C 871.904 334.363,873.562 339.071,874.470 342.214 C 875.378 345.357,876.881 348.799,877.810 349.864 C 878.740 350.930,883.122 352.978,887.549 354.416 C 897.240 357.564,900.567 359.612,899.018 361.478 C 898.426 362.192,893.792 364.249,888.720 366.050 C 883.649 367.850,878.990 369.712,878.366 370.187 C 877.743 370.663,875.794 375.203,874.036 380.276 C 868.003 397.685,866.502 398.012,861.503 383.010 C 857.431 370.789,855.929 368.975,848.287 367.051 C 840.201 365.015,833.874 361.893,834.217 360.110 C 834.619 358.024,839.814 355.569,848.307 353.453 C 856.339 351.451,856.776 350.923,860.864 338.280 C 864.395 327.357,864.588 327.000,866.936 327.000 C 868.153 327.000,869.426 328.571,870.786 331.750 M634.360 360.884 C 635.262 361.632,636.000 363.403,636.000 364.818 C 636.000 367.511,617.854 423.468,588.432 511.500 C 565.337 580.604,565.992 578.812,562.382 582.669 L 559.264 586.000 547.823 586.000 C 534.582 586.000,532.583 585.187,532.812 579.891 C 532.996 575.638,601.171 370.229,604.244 364.668 C 605.561 362.286,607.541 360.276,609.000 359.841 C 613.277 358.565,632.519 359.356,634.360 360.884 M507.020 402.510 C 508.626 403.341,510.486 405.029,511.153 406.260 C 512.688 409.096,512.805 423.842,511.314 426.505 C 510.697 427.608,494.286 439.208,474.846 452.283 C 433.357 480.187,435.339 478.758,436.554 479.885 C 437.074 480.368,454.021 491.858,474.214 505.419 C 494.407 518.980,511.185 530.490,511.498 530.997 C 511.811 531.504,512.329 534.749,512.648 538.209 C 513.447 546.883,511.780 552.554,507.699 555.042 C 501.257 558.970,505.865 561.637,429.286 509.650 C 399.539 489.455,398.500 488.398,398.500 478.323 C 398.500 473.639,399.000 471.478,400.567 469.378 C 402.575 466.688,423.783 451.832,470.000 420.740 C 501.893 399.285,501.324 399.565,507.020 402.510 M677.300 402.654 C 685.664 406.975,773.049 466.261,774.913 468.878 C 779.277 475.007,778.833 482.842,773.797 488.578 C 769.383 493.605,751.797 506.135,710.788 533.470 C 676.665 556.215,674.911 557.247,671.342 556.668 C 665.234 555.677,662.833 552.396,662.249 544.242 C 661.352 531.697,659.466 533.603,700.568 505.526 C 720.676 491.790,737.583 480.003,738.139 479.332 C 738.892 478.425,729.539 471.703,701.539 453.026 C 674.722 435.138,663.650 427.211,662.963 425.404 C 661.466 421.466,661.799 410.289,663.513 406.976 C 665.099 403.909,669.245 401.108,672.300 401.040 C 673.289 401.018,675.539 401.744,677.300 402.654 " stroke="none" fill="black" fill-rule="evenodd"/></svg>